<mxfile host="app.diagrams.net" modified="2023-06-29T19:31:54.940Z" agent="Mozilla/5.0 (Windows NT 10.0; Win64; x64) AppleWebKit/537.36 (KHTML, like Gecko) Chrome/114.0.0.0 Safari/537.36" etag="8KCJ3fPeNfV8HTCwshko" version="21.5.0" type="github">
  <diagram name="Página-1" id="XS2vaBzKAg3KhPCExk7_">
    <mxGraphModel dx="2074" dy="756" grid="0" gridSize="10" guides="1" tooltips="1" connect="1" arrows="1" fold="1" page="0" pageScale="1" pageWidth="827" pageHeight="1169" math="0" shadow="0">
      <root>
        <mxCell id="0" />
        <mxCell id="1" parent="0" />
        <mxCell id="3Nm3l7OfoRQUAwbeV8ax-4" value="" style="rounded=0;whiteSpace=wrap;html=1;" parent="1" vertex="1">
          <mxGeometry x="-302" y="73" width="265" height="372" as="geometry" />
        </mxCell>
        <mxCell id="3Nm3l7OfoRQUAwbeV8ax-7" value="Los banner aparecen o no según un &quot;estado de aplicación&quot; y por partner&lt;br&gt;- Logueado&lt;br&gt;- No logueado&lt;br&gt;- Logueado Loyalty&lt;br&gt;- Logueado Payroll&lt;br&gt;- Logueado GPR&lt;br&gt;- Logueado MGM" style="text;html=1;strokeColor=none;fillColor=none;align=left;verticalAlign=top;whiteSpace=wrap;rounded=0;" parent="1" vertex="1">
          <mxGeometry x="9" y="66" width="196" height="239" as="geometry" />
        </mxCell>
        <mxCell id="3Nm3l7OfoRQUAwbeV8ax-8" value="" style="group" parent="1" vertex="1" connectable="0">
          <mxGeometry x="-281" y="242" width="232" height="225" as="geometry" />
        </mxCell>
        <mxCell id="3Nm3l7OfoRQUAwbeV8ax-2" value="Banner A" style="rounded=0;whiteSpace=wrap;html=1;fillColor=#dae8fc;strokeColor=#6c8ebf;" parent="3Nm3l7OfoRQUAwbeV8ax-8" vertex="1">
          <mxGeometry width="232" height="68" as="geometry" />
        </mxCell>
        <mxCell id="3Nm3l7OfoRQUAwbeV8ax-5" value="Banner B" style="rounded=0;whiteSpace=wrap;html=1;fillColor=#d5e8d4;strokeColor=#82b366;" parent="3Nm3l7OfoRQUAwbeV8ax-8" vertex="1">
          <mxGeometry y="77" width="232" height="68" as="geometry" />
        </mxCell>
        <mxCell id="3Nm3l7OfoRQUAwbeV8ax-6" value="Banner C" style="rounded=0;whiteSpace=wrap;html=1;fillColor=#fff2cc;strokeColor=#d6b656;" parent="3Nm3l7OfoRQUAwbeV8ax-8" vertex="1">
          <mxGeometry y="157" width="232" height="68" as="geometry" />
        </mxCell>
        <mxCell id="3Nm3l7OfoRQUAwbeV8ax-9" value="" style="group" parent="1" vertex="1" connectable="0">
          <mxGeometry x="80" y="401" width="232" height="225" as="geometry" />
        </mxCell>
        <mxCell id="3Nm3l7OfoRQUAwbeV8ax-10" value="Banner A&lt;br&gt;1" style="rounded=0;whiteSpace=wrap;html=1;fillColor=#dae8fc;strokeColor=#6c8ebf;" parent="3Nm3l7OfoRQUAwbeV8ax-9" vertex="1">
          <mxGeometry width="232" height="68" as="geometry" />
        </mxCell>
        <mxCell id="3Nm3l7OfoRQUAwbeV8ax-11" value="Banner B&lt;br&gt;2" style="rounded=0;whiteSpace=wrap;html=1;fillColor=#d5e8d4;strokeColor=#82b366;" parent="3Nm3l7OfoRQUAwbeV8ax-9" vertex="1">
          <mxGeometry y="77" width="232" height="68" as="geometry" />
        </mxCell>
        <mxCell id="3Nm3l7OfoRQUAwbeV8ax-12" value="Banner C&lt;br&gt;3" style="rounded=0;whiteSpace=wrap;html=1;fillColor=#fff2cc;strokeColor=#d6b656;" parent="3Nm3l7OfoRQUAwbeV8ax-9" vertex="1">
          <mxGeometry y="157" width="232" height="68" as="geometry" />
        </mxCell>
        <mxCell id="3Nm3l7OfoRQUAwbeV8ax-13" value="Intermex" style="text;html=1;strokeColor=none;fillColor=none;align=center;verticalAlign=middle;whiteSpace=wrap;rounded=0;" parent="1" vertex="1">
          <mxGeometry x="77" y="363" width="60" height="30" as="geometry" />
        </mxCell>
        <mxCell id="3Nm3l7OfoRQUAwbeV8ax-18" value="Amigo Paisano" style="text;html=1;strokeColor=none;fillColor=none;align=left;verticalAlign=middle;whiteSpace=wrap;rounded=0;" parent="1" vertex="1">
          <mxGeometry x="512" y="363" width="177" height="30" as="geometry" />
        </mxCell>
        <mxCell id="3Nm3l7OfoRQUAwbeV8ax-15" value="Banner A&lt;br&gt;2" style="rounded=0;whiteSpace=wrap;html=1;fillColor=#dae8fc;strokeColor=#6c8ebf;" parent="1" vertex="1">
          <mxGeometry x="512" y="479.5" width="232" height="68" as="geometry" />
        </mxCell>
        <mxCell id="3Nm3l7OfoRQUAwbeV8ax-16" value="Banner B&lt;br&gt;1" style="rounded=0;whiteSpace=wrap;html=1;fillColor=#d5e8d4;strokeColor=#82b366;" parent="1" vertex="1">
          <mxGeometry x="510" y="401" width="232" height="68" as="geometry" />
        </mxCell>
        <mxCell id="3Nm3l7OfoRQUAwbeV8ax-17" value="Banner C&lt;br&gt;3" style="rounded=0;whiteSpace=wrap;html=1;fillColor=#fff2cc;strokeColor=#d6b656;" parent="1" vertex="1">
          <mxGeometry x="512" y="558" width="232" height="68" as="geometry" />
        </mxCell>
        <mxCell id="3Nm3l7OfoRQUAwbeV8ax-19" value="" style="group" parent="1" vertex="1" connectable="0">
          <mxGeometry x="-59" y="746" width="232" height="225" as="geometry" />
        </mxCell>
        <mxCell id="3Nm3l7OfoRQUAwbeV8ax-20" value="Banner A&lt;br&gt;1" style="rounded=0;whiteSpace=wrap;html=1;fillColor=#dae8fc;strokeColor=#6c8ebf;" parent="3Nm3l7OfoRQUAwbeV8ax-19" vertex="1">
          <mxGeometry width="232" height="68" as="geometry" />
        </mxCell>
        <mxCell id="3Nm3l7OfoRQUAwbeV8ax-21" value="Banner B&lt;br&gt;2" style="rounded=0;whiteSpace=wrap;html=1;fillColor=#d5e8d4;strokeColor=#82b366;" parent="3Nm3l7OfoRQUAwbeV8ax-19" vertex="1">
          <mxGeometry y="77" width="232" height="68" as="geometry" />
        </mxCell>
        <mxCell id="3Nm3l7OfoRQUAwbeV8ax-22" value="Banner C&lt;br&gt;3" style="rounded=0;whiteSpace=wrap;html=1;fillColor=#fff2cc;strokeColor=#d6b656;" parent="3Nm3l7OfoRQUAwbeV8ax-19" vertex="1">
          <mxGeometry y="157" width="232" height="68" as="geometry" />
        </mxCell>
        <mxCell id="3Nm3l7OfoRQUAwbeV8ax-23" value="Intermex&lt;br&gt;Logueado MGM" style="text;html=1;strokeColor=none;fillColor=none;align=left;verticalAlign=middle;whiteSpace=wrap;rounded=0;" parent="1" vertex="1">
          <mxGeometry x="-62" y="708" width="117" height="30" as="geometry" />
        </mxCell>
        <mxCell id="3Nm3l7OfoRQUAwbeV8ax-28" value="Intermex&lt;br&gt;Logueado" style="text;html=1;strokeColor=none;fillColor=none;align=left;verticalAlign=middle;whiteSpace=wrap;rounded=0;" parent="1" vertex="1">
          <mxGeometry x="238" y="707" width="158" height="30" as="geometry" />
        </mxCell>
        <mxCell id="3Nm3l7OfoRQUAwbeV8ax-25" value="Banner A&lt;br&gt;2" style="rounded=0;whiteSpace=wrap;html=1;fillColor=#dae8fc;strokeColor=#6c8ebf;" parent="1" vertex="1">
          <mxGeometry x="241" y="824.5" width="232" height="68" as="geometry" />
        </mxCell>
        <mxCell id="3Nm3l7OfoRQUAwbeV8ax-27" value="Banner C&lt;br&gt;1" style="rounded=0;whiteSpace=wrap;html=1;fillColor=#fff2cc;strokeColor=#d6b656;" parent="1" vertex="1">
          <mxGeometry x="241" y="746" width="232" height="68" as="geometry" />
        </mxCell>
      </root>
    </mxGraphModel>
  </diagram>
</mxfile>
